<svg xmlns="http://www.w3.org/2000/svg" xmlns:xlink="http://www.w3.org/1999/xlink" fill="none" version="1.1" width="400" height="400" viewBox="0 0 400 400"><defs><linearGradient x1="0.5" y1="0" x2="0.5" y2="1" id="master_svg0_18_552"><stop offset="4.285714402794838%" stop-color="#00EEFF" stop-opacity="0.7699999809265137"/><stop offset="100%" stop-color="#007BFF" stop-opacity="0.8600000143051147"/></linearGradient><clipPath id="master_svg1_18_804/18_652"><rect x="71" y="71" width="258" height="258" rx="0"/></clipPath></defs><g style="mix-blend-mode:passthrough"><g style="mix-blend-mode:passthrough"><path d="M200,0L0,0L0,200Q0,204.91,0.240909,209.814Q0.481817,214.717,0.963055,219.603Q1.44429,224.49,2.1647,229.346Q2.8851,234.203,3.84294,239.018Q4.80078,243.833,5.99375,248.596Q7.18671,253.359,8.61193,258.057Q10.0371,262.755,11.6912,267.378Q13.3452,272.001,15.2241,276.537Q17.103,281.073,19.2021,285.511Q21.3013,289.949,23.6157,294.279Q25.9302,298.609,28.4543,302.82Q30.9784,307.032,33.7061,311.114Q36.4338,315.196,39.3585,319.14Q42.2832,323.083,45.3979,326.879Q48.5126,330.674,51.8098,334.312Q55.1069,337.95,58.5786,341.421Q62.0503,344.893,65.6882,348.19Q69.3261,351.487,73.1213,354.602Q76.9166,357.717,80.8601,360.641Q84.8036,363.566,88.8859,366.294Q92.9682,369.022,97.1794,371.546Q101.391,374.07,105.721,376.384Q110.051,378.699,114.489,380.798Q118.927,382.897,123.463,384.776Q127.999,386.655,132.622,388.309Q137.245,389.963,141.943,391.388Q146.641,392.813,151.404,394.006Q156.167,395.199,160.982,396.157Q165.797,397.115,170.654,397.835Q175.51,398.556,180.397,399.037Q185.283,399.518,190.186,399.759Q195.09,400,200,400Q204.91,400,209.814,399.759Q214.717,399.518,219.603,399.037Q224.49,398.556,229.346,397.835Q234.203,397.115,239.018,396.157Q243.833,395.199,248.596,394.006Q253.359,392.813,258.057,391.388Q262.755,389.963,267.378,388.309Q272.001,386.655,276.537,384.776Q281.073,382.897,285.511,380.798Q289.949,378.699,294.279,376.384Q298.609,374.07,302.82,371.546Q307.032,369.022,311.114,366.294Q315.196,363.566,319.14,360.641Q323.083,357.717,326.879,354.602Q330.674,351.487,334.312,348.19Q337.95,344.893,341.421,341.421Q344.893,337.95,348.19,334.312Q351.487,330.674,354.602,326.879Q357.717,323.083,360.641,319.14Q363.566,315.196,366.294,311.114Q369.022,307.032,371.546,302.82Q374.07,298.609,376.384,294.279Q378.699,289.949,380.798,285.511Q382.897,281.073,384.776,276.537Q386.655,272.001,388.309,267.378Q389.963,262.755,391.388,258.057Q392.813,253.359,394.006,248.596Q395.199,243.833,396.157,239.018Q397.115,234.203,397.835,229.346Q398.556,224.489,399.037,219.603Q399.518,214.717,399.759,209.814Q400,204.91,400,200Q400,195.09,399.759,190.186Q399.518,185.283,399.037,180.397Q398.556,175.51,397.835,170.654Q397.115,165.797,396.157,160.982Q395.199,156.167,394.006,151.404Q392.813,146.641,391.388,141.943Q389.963,137.245,388.309,132.622Q386.655,127.999,384.776,123.463Q382.897,118.927,380.798,114.489Q378.699,110.051,376.384,105.721Q374.07,101.391,371.546,97.1795Q369.022,92.9682,366.294,88.8859Q363.566,84.8037,360.641,80.8601Q357.717,76.9166,354.602,73.1213Q351.487,69.3261,348.19,65.6882Q344.893,62.0503,341.421,58.5786Q337.95,55.1069,334.312,51.8098Q330.674,48.5126,326.879,45.3979Q323.083,42.2832,319.14,39.3585Q315.196,36.4338,311.114,33.7061Q307.032,30.9784,302.82,28.4543Q298.609,25.9302,294.279,23.6157Q289.949,21.3013,285.511,19.2021Q281.073,17.103,276.537,15.2241Q272.001,13.3452,267.378,11.6912Q262.755,10.0371,258.057,8.61193Q253.359,7.18671,248.596,5.99375Q243.833,4.80078,239.018,3.84294Q234.203,2.8851,229.346,2.1647Q224.489,1.44429,219.603,0.963055Q214.717,0.481817,209.814,0.240909Q204.91,0,200,0Z" fill-rule="evenodd" fill="url(#master_svg0_18_552)" fill-opacity="1"/></g><g clip-path="url(#master_svg1_18_804/18_652)"><g><path d="M103.24990844726562,103.25L296.7499084472656,103.25C302.68690844726564,103.25,307.4999084472656,108.06294,307.4999084472656,114L307.4999084472656,286C307.4999084472656,291.937,302.68690844726564,296.75,296.7499084472656,296.75L103.24990844726562,296.75C97.31284844726562,296.75,92.49990844726562,291.937,92.49990844726562,286L92.49990844726562,114C92.49990844726562,108.06294,97.31284844726562,103.25,103.24990844726562,103.25ZM199.99990844726562,232.25L199.99990844726562,253.75L264.4999084472656,253.75L264.4999084472656,232.25L199.99990844726562,232.25ZM161.45040844726563,200L131.04940844726562,230.401L146.24990844726562,245.612L191.86220844726563,200L146.24990844726562,154.3877L131.04940844726562,169.599L161.45040844726563,200Z" fill="#FFFFFF" fill-opacity="1"/></g></g></g></svg>