<svg filter="url(#colors6395658307)" x="0" y="0" width="100" height="96.89453030376436" filtersec="colorsf2333509912" class="image-svg-svg primary" style="overflow: visible;"><svg xmlns="http://www.w3.org/2000/svg" xmlns:xlink="http://www.w3.org/1999/xlink" viewBox="-0.0034374594688415527 0.004062652587890625 70.5300064086914 68.33999633789062"><path transform="translate(-0.7734375 61.6640625)" d="M63-52.88L63-52.88L30.87-52.88L30.30-54.84L51.68-54.84L56.46-61.45Q61.95-57.02 65.04-54L65.04-54Q64.83-52.88 63-52.88ZM14.41-61.66L14.41-61.66L28.41-57.45Q27.98-55.97 25.45-55.97L25.45-55.97Q21.87-46.83 18.07-40.36L18.07-40.36L22.36-38.81Q22.01-37.69 20.18-37.34L20.18-37.34L20.18 3.80Q20.11 4.15 18.88 4.82Q17.65 5.48 15.61 6.08Q13.57 6.68 11.67 6.68L11.67 6.68L9.70 6.68L9.70-28.83Q5.91-24.40 1.62-20.95L1.62-20.95L0.77-21.45Q4.85-29.04 8.61-40.04Q12.38-51.05 14.41-61.66ZM38.95-14.20L38.95-1.34L54.70-1.34L54.70-14.20L38.95-14.20ZM39.38-16.17L54-16.17L58.57-21.16L67.99-14.13Q67.01-12.87 65.18-12.52L65.18-12.52L65.18 3.02Q65.11 3.30 63.74 3.94Q62.37 4.57 60.26 5.10Q58.15 5.63 56.53 5.63L56.53 5.63L54.70 5.63L54.70 0.63L38.95 0.63L38.95 3.16Q38.95 3.94 36.04 5.10Q33.12 6.26 30.16 6.26L30.16 6.26L28.76 6.26L28.76-20.25L39.38-16.17ZM65.04-23.63L29.32-23.63L28.76-25.66L54.14-25.66L58.78-31.99Q63.91-27.63 67.01-24.75L67.01-24.75Q66.73-23.63 65.04-23.63L65.04-23.63ZM28.76-35.37L54.14-35.37L58.78-41.70Q63.91-37.34 67.01-34.45L67.01-34.45Q66.73-33.33 65.04-33.33L65.04-33.33L29.32-33.33L28.76-35.37ZM24.40-45L57.23-45L62.30-51.89Q67.99-47.25 71.30-44.16L71.30-44.16Q70.95-42.96 69.19-42.96L69.19-42.96L24.96-42.96L24.40-45Z"></path></svg></svg>